<svg width="1440" height="1067" fill="none" xmlns="http://www.w3.org/2000/svg"><path fill-rule="evenodd" clip-rule="evenodd" d="M379.854 267.941c-8.088-1.698-16.837-4.079-25.454-5.947-22.723-4.924-57.897-10.107-80.634-12.153-26.373-2.372-59.926-3.224-86.944.381-8.87 1.183-17.568 2.835-26.357 3.656-1.943 1.575-5.323 1.774-7.824 2.339l-22.304 5.676c-9.553 2.688-19.183 5.877-27.918 9.345-18.207 7.229-34.986 15.655-49.945 25.632-8.276 5.52-14.906 10.338-22.289 16.018-15.447 11.886-35.328 32.211-47.744 47.479l-8.086 10.339.477 85.971c-.071 28.901-.201 58.84.494 86.694.19 7.623-.78 13.21-.766 20.411.293 160.223-.787 321.576-1.183 481.978-.016 6.24-1.61 15.87 1.88 20.41h1.646l35.963-17.11c14.608-7.55 20.555-12.23 33.793-20.19 15.113-9.08 38.264-27 50.969-39.912 3.514-3.571 5.076-6.143 8.958-9.427l35.936-36.775c3.11-3.165 5.558-5.715 8.644-8.907 7.216-7.469 5.295-2.363 13.285-13.459l27.618-36.039c1.675-2.278 2.047-3.562 3.506-5.697 16.004-23.415 31.614-49.962 46.882-71.417 11.46-16.102 18.631-26.689 30.795-42.117 2.693-3.415 5.965-6.755 8.23-10.199 6.182-9.402 24.841-28.78 33.852-38.095 29.265-30.257 66.937-60.765 106.223-75.278 49.181-18.169 99.08-23.692 155.372-14.158 10.116 1.713 20.176 3.796 30.212 6.076 40.619 9.23 91.815 30.473 130.452 48.912 3.661 1.747 8.474 4.305 12.273 5.959 2.729 1.188 3.326 1.382 6.256 2.922 19.343 10.167 46.769 21.952 66.246 32.681 3.826 2.106 8.114 4.311 12.039 6.261 24.637 12.241 46.896 24.045 72.573 35.54 39.708 17.775 64.257 25.978 103.92 40.483 17.21 6.294 37.49 11.865 55.48 16.627 26.74 7.078 26.44 8.46 56.8 14.352 87.7 17.017 166.21 18.699 248.23-13.997 22.74-9.063 38.93-19.56 57.34-32.378 3.9-2.716 6.64-5.286 10.21-8.165 14.67-11.859 24.22-20.357 37.16-35.48 2.73-3.195 6.15-6.296 8.59-9.791 2.11-3.02 1.91-2.856 3.98-5.239 1.54-1.769 2.48-3.667 3.84-5.253l.03-10.319c-1.04-2.033-.71-2.038-.74-5.066-.18-21.018 1.03-158.044.24-161.432-4.17-17.962-1.8-23.305-1.75-43.497l.73-297.516c.1-40.577-.52-87.486.29-127.507.28-13.71 2.35-28.565.53-42.361-.12-.2-.2-.491-.24-.657l-.59-2.966c-.31-1.903.36-5.349-4.85-3.341l-28.1 13.56c-21.19 10.898-66.23 38.8-82.61 55.544l-68.98 69.716-19.09 23.625c-11.16 14.421-40.07 58.485-50.08 74.887-3.5 5.733-7.26 10.941-11.07 16.627-11.48 17.117-28.64 40.968-41.72 56.293-1.56 1.836-1.44 2.2-2.8 3.922-13.28 16.735-28.49 31.555-43.58 46.728-26.49 26.62-63.38 50.834-99.92 64.843-57.869 22.184-127.77 19.869-189.886 3.449-56.501-14.937-107.6-39.519-157.105-63.77-24.44-11.974-49.661-24.214-73.525-37.025-52.938-28.418-137.254-63.155-195.953-79.796-4.248-1.205-39.49-9.55-41.907-12.9z" fill="url(#paint0_linear)"/><path fill-rule="evenodd" clip-rule="evenodd" d="M380.667 269.386c2.417 3.349 37.659 11.694 41.907 12.899 58.699 16.641 143.015 51.378 195.953 79.797 23.863 12.81 49.086 25.051 73.525 37.024 49.505 24.252 100.604 48.834 157.106 63.771 62.114 16.42 132.016 18.734 189.882-3.449 36.54-14.009 73.43-38.223 99.92-64.844 15.1-15.173 30.3-29.992 43.58-46.728 1.37-1.722 1.24-2.086 2.81-3.922 13.07-15.324 30.23-39.176 41.71-56.292 3.81-5.686 7.57-10.894 11.07-16.628 10.01-16.401 38.93-60.465 50.09-74.887l19.08-23.624 68.99-69.718c16.37-16.743 61.42-44.644 82.6-55.542l28.1-13.561c5.21-2.007 4.54 1.438 4.85 3.342l.59 2.965c.05.166.12.457.24.656l-.38-10.24c-5.36-3.901-17.26-8.07-24.65-10.897-18.18-6.947-34.86-11.376-54.4-15.125-3.36-.645-29.83-3.823-30.29-4.12l-38.3-.101c-1.13.687-20.47 2.73-23.75 3.382-30.51 6.057-64.92 23.304-86.84 45.9-18.42 18.986-16.31 15.53-31.35 36.43-15.26 21.211-22.63 37.764-31.86 62.29-10.01 26.596-20.73 52.047-30.06 77.892-4.83 13.37-10.05 26.189-15.31 39.421-2.89 7.277-4.92 11.903-7.92 19.049l-8.24 18.697c-5.68 14.524-19.04 39.973-26.77 53.98-5.47 9.929-16.41 24.067-21.66 32.888-9.1 15.293-22.99 33.255-36.16 44.189-9.49 7.882-18.86 15.003-32.685 20.56-40.222 16.17-90.43 6.569-124.284-18.675-13.682-10.203-23.777-17.9-36.049-30.727-7.306-7.635-9.827-6.516-19.737-20.372-3.367-4.709-9.471-9.348-13.348-14.245-4.042-5.107-8.444-8.954-12.587-14.156l-24.458-29.123c-2.462-2.457-4.392-3.865-6.851-6.485-5.128-5.464-2.798-2.699-7.168-6.195l-27.091-26.329c-11.969-10.799-33.746-26.635-47.286-33.601-11.708-6.024-22.021-12.197-36.035-17.141-38.558-13.601-50.363-14.015-90.596-13.926-42.848.096-88.521 15.468-127.863 30.888-6.142 2.409-33.724 15.304-38.025 14.633z" fill="url(#paint1_linear)"/><path fill-rule="evenodd" clip-rule="evenodd" d="M-46.672 260.431L-47 393.233l.723-.235 8.086-10.339c12.416-15.268 32.297-35.593 47.744-47.479 7.382-5.68 14.013-10.498 22.288-16.019 14.96-9.976 31.738-18.402 49.946-25.631 8.735-3.468 18.365-6.657 27.918-9.345l22.304-5.676c2.501-.565 5.881-.764 7.824-2.339-7.317.935-16.397-4.502-22.347-6.62-37.574-13.381-76.52-27.642-119.417-21.528-28.785 4.104-33.035 10.526-44.74 12.409z" fill="#706FD3" stroke="#706FD3" stroke-width=".2" stroke-miterlimit="22.926"/><defs><linearGradient id="paint0_linear" x1="85.013" y1="719.724" x2="1496.63" y2="363.299" gradientUnits="userSpaceOnUse"><stop stop-color="#80B6E2"/><stop offset="1" stop-color="#584682"/></linearGradient><linearGradient id="paint1_linear" x1="380.75" y1="235.879" x2="1492.11" y2="160.196" gradientUnits="userSpaceOnUse"><stop stop-color="#706FD3"/><stop offset="1" stop-color="#40407A"/></linearGradient></defs></svg>