<svg width="161" height="157" fill="none" xmlns="http://www.w3.org/2000/svg"><ellipse cx="80.5" cy="78.224" rx="80.5" ry="78.176" fill="url(#paint0_linear)"/><path d="M85.438 73.854V75.5h-9.876v-1.646a4.938 4.938 0 0 1 9.876 0z" fill="#F2F2F2"/><path d="M95.313 73.854V75.5h-9.876v-1.646a4.938 4.938 0 0 0-9.874 0V75.5h-9.876v-1.646c0-8.18 6.632-14.813 14.813-14.813 8.18 0 14.813 6.632 14.813 14.813z" fill="#D9EEF7"/><path d="M118.354 68.917V75.5H95.313v-1.646c0-8.18-6.632-14.812-14.813-14.812-8.18 0-14.813 6.632-14.813 14.812V75.5h-23.04v-6.583c0-.91.737-1.646 1.646-1.646h7.768a28.88 28.88 0 0 1 2.502-6.073l-5.481-5.481a1.659 1.659 0 0 1 0-2.337l9.299-9.3a1.659 1.659 0 0 1 2.337 0l5.48 5.482a28.928 28.928 0 0 1 6.074-2.502v-7.768c0-.91.737-1.646 1.646-1.646h13.166c.91 0 1.646.737 1.646 1.646v7.768c2.113.6 4.15 1.44 6.073 2.502l5.481-5.481a1.659 1.659 0 0 1 2.337 0l9.299 9.299c.642.647.642 1.69 0 2.337l-5.48 5.48a28.985 28.985 0 0 1 2.501 6.074h7.769c.908 0 1.645.737 1.645 1.646z" fill="#AAC4DA"/><path d="M100.25 100.188h16.458c.909 0 1.646.736 1.646 1.645v9.875c0 .909-.737 1.646-1.646 1.646H100.25a1.646 1.646 0 0 1-1.646-1.646v-9.875c0-.909.737-1.645 1.646-1.645zm-27.98 0h16.46c.908 0 1.645.736 1.645 1.645v9.875c0 .909-.737 1.646-1.646 1.646H72.271a1.646 1.646 0 0 1-1.646-1.646v-9.875c0-.909.737-1.645 1.646-1.645zm-27.978 0H60.75c.909 0 1.646.736 1.646 1.645v9.875c0 .909-.737 1.646-1.646 1.646H44.292a1.646 1.646 0 0 1-1.646-1.646v-9.875c0-.909.737-1.645 1.646-1.645z" fill="#FFE451"/><path d="M116.708 65.625h-6.553a31.024 31.024 0 0 0-1.696-4.115l4.625-4.624a3.292 3.292 0 0 0 .001-4.656h-.001l-9.309-9.317a3.37 3.37 0 0 0-4.654 0L94.49 47.54a31.015 31.015 0 0 0-4.115-1.696v-6.553A3.292 3.292 0 0 0 87.083 36H73.917a3.292 3.292 0 0 0-3.292 3.292v6.553a30.993 30.993 0 0 0-4.115 1.696l-4.63-4.628a3.37 3.37 0 0 0-4.655 0l-9.313 9.312a3.292 3.292 0 0 0 0 4.654l4.629 4.631a31.015 31.015 0 0 0-1.696 4.115h-6.553A3.292 3.292 0 0 0 41 68.917V75.5h3.292v-6.583h7.766c.734 0 1.379-.486 1.582-1.19A27.888 27.888 0 0 1 56 61.994a1.646 1.646 0 0 0-.276-1.965l-5.483-5.477 9.31-9.31 5.478 5.482c.519.518 1.317.63 1.959.276a27.923 27.923 0 0 1 5.739-2.36 1.646 1.646 0 0 0 1.19-1.582v-7.766h13.166v7.766c0 .734.485 1.379 1.19 1.582A27.927 27.927 0 0 1 94.006 51c.641.354 1.44.242 1.958-.276l5.484-5.483 9.31 9.31-5.482 5.478a1.645 1.645 0 0 0-.276 1.96 27.95 27.95 0 0 1 2.36 5.733c.203.705.848 1.19 1.581 1.19h7.767v6.583H120v-6.578a3.292 3.292 0 0 0-3.292-3.292z" fill="#4C5B66"/><path d="M64.041 73.854V75.5h3.292v-1.646c0-7.272 5.895-13.166 13.167-13.166s13.166 5.894 13.166 13.166V75.5h3.292v-1.646c0-9.09-7.368-16.458-16.458-16.458-9.09 0-16.459 7.368-16.459 16.458zm14.813-31.271h3.292v3.292h-3.292v-3.292zm-21.396 9.875h3.292v3.292h-3.292v-3.292zm-9.875 19.751h3.292V75.5h-3.292v-3.29zm62.542 0h3.292V75.5h-3.292v-3.29zm-9.875-19.751h3.292v3.292h-3.292v-3.292zm-39.5 46.084H44.292A3.291 3.291 0 0 0 41 101.833v9.875A3.292 3.292 0 0 0 44.292 115H60.75a3.292 3.292 0 0 0 3.292-3.292v-9.875a3.291 3.291 0 0 0-3.292-3.291zm0 13.166H44.292v-9.875H60.75v9.875zm55.958-13.166H100.25a3.291 3.291 0 0 0-3.292 3.291v9.875A3.292 3.292 0 0 0 100.25 115h16.458a3.292 3.292 0 0 0 3.292-3.292v-9.875a3.292 3.292 0 0 0-3.292-3.291zm0 13.166H100.25v-9.875h16.458v9.875zM88.73 98.542H72.27a3.291 3.291 0 0 0-3.29 3.291v9.875A3.292 3.292 0 0 0 72.27 115h16.46a3.292 3.292 0 0 0 3.29-3.292v-9.875a3.292 3.292 0 0 0-3.29-3.291zm0 13.166H72.27v-9.875h16.46v9.875z" fill="#4C5B66"/><path d="M50.875 87.02v8.23h3.292v-6.584h24.687v6.584h3.292v-6.584h24.687v6.584h3.292v-8.23c0-.908-.737-1.645-1.646-1.645H82.146V73.854h-3.292v11.52H52.521c-.91 0-1.646.738-1.646 1.647zm-3.292 18.105h3.292v3.292h-3.292v-3.292zm6.584 0h3.291v3.292h-3.291v-3.292zm21.396 0h3.291v3.292h-3.291v-3.292zm6.583 0h3.291v3.292h-3.291v-3.292zm21.396 0h3.291v3.292h-3.291v-3.292zm6.583 0h3.292v3.292h-3.292v-3.292z" fill="#4C5B66"/><path d="M88.73 75.5v-1.646a8.23 8.23 0 0 0-16.459 0V75.5h3.292v-1.646a4.938 4.938 0 0 1 9.875 0V75.5h3.291z" fill="#4C5B66"/><defs><linearGradient id="paint0_linear" x1="80.5" y1=".048" x2="80.5" y2="156.4" gradientUnits="userSpaceOnUse"><stop stop-color="#6F6F9E"/><stop offset="1" stop-color="#40407A" stop-opacity=".43"/></linearGradient></defs></svg>