<svg class="lds-gears" width="70" height="70" xmlns="http://www.w3.org/2000/svg" viewBox="0 0 100 100" preserveAspectRatio="xMidYMid" style="background:0 0"><g transform="rotate(-70.069 37.608 -6.608) scale(.6)"><animateTransform attributeName="transform" type="rotate" values="0;360" keyTimes="0;1" dur="5.4s" begin="0s" repeatCount="indefinite"/><path d="M37.35-7h10V7h-10a38 38 0 0 1-5.99 14.46l7.071 7.072-9.9 9.899-7.07-7.071A38 38 0 0 1 7 37.35v10H-7v-10a38 38 0 0 1-14.46-5.99l-7.072 7.071-9.899-9.9 7.071-7.07A38 38 0 0 1-37.35 7h-10V-7h10a38 38 0 0 1 5.99-14.46l-7.071-7.072 9.9-9.899 7.07 7.071A38 38 0 0 1-7-37.35v-10H7v10a38 38 0 0 1 14.46 5.99l7.072-7.071 9.899 9.9-7.071 7.07A38 38 0 0 1 37.35-7M0-23a23 23 0 1 0 0 46 23 23 0 1 0 0-46" fill="#474787"/></g><g transform="rotate(47.569 -43.779 112.779) scale(.6)"><animateTransform attributeName="transform" type="rotate" values="360;0" keyTimes="0;1" dur="5.4s" begin="-0.3375s" repeatCount="indefinite"/><path d="M37.35-7h10V7h-10a38 38 0 0 1-5.99 14.46l7.071 7.072-9.9 9.899-7.07-7.071A38 38 0 0 1 7 37.35v10H-7v-10a38 38 0 0 1-14.46-5.99l-7.072 7.071-9.899-9.9 7.071-7.07A38 38 0 0 1-37.35 7h-10V-7h10a38 38 0 0 1 5.99-14.46l-7.071-7.072 9.9-9.899 7.07 7.071A38 38 0 0 1-7-37.35v-10H7v10a38 38 0 0 1 14.46 5.99l7.072-7.071 9.899 9.9-7.071 7.07A38 38 0 0 1 37.35-7M0-23a23 23 0 1 0 0 46 23 23 0 1 0 0-46" fill="#706fd3"/></g></svg>